<svg width="164.000000" height="50.000000" viewBox="0 0 164 50" fill="none" xmlns="http://www.w3.org/2000/svg" xmlns:xlink="http://www.w3.org/1999/xlink">
	<desc>
			Created with Pixso.
	</desc>
	<defs/>
	<path id="Vector" d="M52.92 19.43L64.85 19.43L64.85 21.71L55.54 21.71L55.54 28.31L63.39 28.31L63.39 30.58L55.54 30.58L55.54 38.25L65.16 38.25L65.16 40.52L52.92 40.52L52.92 19.43Z" fill="#0C4A6E" fill-opacity="1.000000" fill-rule="evenodd"/>
	<path id="Vector" d="M67.6 38.73L68.88 36.99C70.21 38.09 71.56 38.84 73.41 38.84C75.41 38.84 76.42 37.75 76.42 36.42C76.42 34.82 74.61 34.1 72.91 33.46C70.75 32.66 68.33 31.58 68.33 28.95C68.33 26.45 70.3 24.51 73.62 24.51C75.53 24.51 77.21 25.3 78.4 26.26L77.15 27.96C76.09 27.17 75.01 26.57 73.65 26.57C71.72 26.57 70.83 27.62 70.83 28.8C70.83 30.29 72.49 30.85 74.22 31.52C76.43 32.36 78.9 33.28 78.9 36.26C78.9 38.79 76.92 40.9 73.31 40.9C71.13 40.9 69.02 39.97 67.59 38.74L67.6 38.73Z" fill="#0C4A6E" fill-opacity="1.000000" fill-rule="evenodd"/>
	<path id="Vector" d="M82.34 27.05L80.06 27.05L80.06 25.05L82.45 24.91L82.77 20.53L84.93 20.53L84.93 24.91L89.09 24.91L89.09 27.05L84.93 27.05L84.93 35.74C84.93 37.65 85.54 38.74 87.3 38.74C87.84 38.74 88.55 38.54 89.05 38.32L89.55 40.32C88.69 40.61 87.66 40.9 86.71 40.9C83.44 40.9 82.34 38.8 82.34 35.69L82.34 27.05Z" fill="#0C4A6E" fill-opacity="1.000000" fill-rule="evenodd"/>
	<path id="Vector" d="M92.07 19.97C92.07 18.94 92.86 18.27 93.86 18.27C94.87 18.27 95.66 18.94 95.66 19.97C95.66 21.01 94.87 21.68 93.86 21.68C92.86 21.68 92.07 20.97 92.07 19.97ZM92.55 24.89L95.14 24.89L95.14 40.51L92.55 40.51L92.55 24.89Z" fill="#0C4A6E" fill-opacity="1.000000" fill-rule="evenodd"/>
	<path id="Vector" d="M100.3 24.89L102.45 24.89L102.67 27.15L102.75 27.15C104.1 25.68 105.69 24.51 107.53 24.51C109.88 24.51 111.13 25.65 111.76 27.49C113.35 25.74 114.95 24.51 116.82 24.51C119.97 24.51 121.48 26.63 121.48 30.61L121.48 40.51L118.88 40.51L118.88 30.96C118.88 28.06 117.98 26.8 116.03 26.8C114.84 26.8 113.6 27.59 112.19 29.2L112.19 40.51L109.59 40.51L109.59 30.96C109.59 28.06 108.69 26.8 106.74 26.8C105.59 26.8 104.32 27.59 102.9 29.2L102.9 40.51L100.3 40.51L100.3 24.89Z" fill="#0C4A6E" fill-opacity="1.000000" fill-rule="evenodd"/>
	<path id="Vector" d="M125.5 36.45C125.5 33.05 128.39 31.34 134.92 30.63C134.92 28.61 134.26 26.69 131.75 26.69C129.98 26.69 128.39 27.55 127.18 28.37L126.16 26.56C127.57 25.61 129.72 24.51 132.18 24.51C135.93 24.51 137.5 27.04 137.5 30.93L137.5 40.51L135.35 40.51L135.14 38.64L135.05 38.64C133.59 39.88 131.88 40.89 129.98 40.89C127.41 40.89 125.49 39.27 125.49 36.45L125.5 36.45ZM134.92 36.7L134.92 32.36C129.79 32.99 128.04 34.28 128.04 36.28C128.04 38.06 129.22 38.77 130.72 38.77C132.23 38.77 134.91 36.7 134.91 36.7L134.92 36.7Z" fill="#0C4A6E" fill-opacity="1.000000" fill-rule="evenodd"/>
	<path id="Vector" d="M142.36 27.05L140.08 27.05L140.08 25.05L142.48 24.91L142.79 20.53L144.96 20.53L144.96 24.91L149.11 24.91L149.11 27.05L144.96 27.05L144.96 35.74C144.96 37.65 145.56 38.74 147.32 38.74C147.87 38.74 148.57 38.54 149.07 38.32L149.57 40.32C148.71 40.61 147.68 40.9 146.73 40.9C143.47 40.9 142.36 38.8 142.36 35.69L142.36 27.05Z" fill="#0C4A6E" fill-opacity="1.000000" fill-rule="evenodd"/>
	<path id="Vector" d="M150.98 32.71C150.98 27.64 154.35 24.5 157.87 24.5C161.79 24.5 164 27.36 164 31.82C164 32.38 163.95 32.93 163.88 33.33L153.56 33.33C153.75 36.64 155.72 38.79 158.65 38.79C160.12 38.79 161.33 38.3 162.46 37.55L163.39 39.28C162.05 40.17 160.41 40.9 158.33 40.9C154.25 40.9 150.99 37.87 150.99 32.73L150.98 32.71ZM161.7 31.45C161.7 28.32 160.33 26.61 157.92 26.61C155.77 26.61 153.83 28.38 153.52 31.45L161.7 31.45Z" fill="#0C4A6E" fill-opacity="1.000000" fill-rule="evenodd"/>
	<path id="Vector" d="M46.34 6.33C47.92 8.49 48.88 11.38 48.92 15.2C48.71 27.62 52.49 49.57 34.18 49.8C21.98 49.59 0.42 53.44 0.18 34.79C0.39 22.38 -3.38 0.43 14.93 0.18C24.62 0.36 40.22 -2.03 46.34 6.31L46.34 6.33Z" fill="#0C4A6E" fill-opacity="1.000000" fill-rule="evenodd"/>
	<path id="Vector" d="M42.54 46.74L23.96 46.74C23.88 46.74 23.82 46.68 23.82 46.59L23.82 30.16C23.82 30.07 23.76 30.02 23.68 30.02L14.6 30.02C14.46 30.02 14.4 29.84 14.52 29.75L45.05 5.2C45.05 5.2 45.21 5.16 45.25 5.23L46.86 7.29C46.86 7.29 46.9 7.45 46.83 7.5L22.44 27.1L26.54 27.1C26.63 27.1 26.69 27.15 26.69 27.24L26.69 43.68C26.69 43.76 26.74 43.82 26.83 43.82L44.48 43.82C44.56 43.82 44.62 43.88 44.62 43.97L44.62 44.62C44.62 45.79 43.69 46.74 42.54 46.74Z" fill="#FFFFFF" fill-opacity="1.000000" fill-rule="nonzero"/>
</svg>
